<mxfile host="Electron" modified="2025-09-05T09:29:49.877Z" agent="Mozilla/5.0 (Windows NT 10.0; Win64; x64) AppleWebKit/537.36 (KHTML, like Gecko) draw.io/24.1.0 Chrome/120.0.6099.109 Electron/28.1.0 Safari/537.36" etag="ir8MXLnEfMNFQ6jCrQ4w" version="24.1.0" type="device">
  <diagram name="Страница — 1" id="g0rm2WZQcgHY-3gYLtKL">
    <mxGraphModel dx="3218" dy="1263" grid="1" gridSize="10" guides="1" tooltips="1" connect="1" arrows="1" fold="1" page="1" pageScale="1" pageWidth="827" pageHeight="1169" math="0" shadow="0">
      <root>
        <mxCell id="0" />
        <mxCell id="1" parent="0" />
        <mxCell id="JTB2cIfCWi0zclC-SJn_-1" value="&lt;b&gt;Кирилл&lt;/b&gt;&lt;div&gt;2005&amp;nbsp;&lt;span style=&quot;background-color: initial;&quot;&gt;г. р.&lt;/span&gt;&lt;/div&gt;" style="rounded=1;whiteSpace=wrap;html=1;arcSize=50;shadow=0;" parent="1" vertex="1">
          <mxGeometry x="370" y="630" width="120" height="60" as="geometry" />
        </mxCell>
        <mxCell id="JTB2cIfCWi0zclC-SJn_-2" value="&lt;b&gt;Дарья&lt;/b&gt;&lt;div&gt;1978 г. р.&lt;/div&gt;" style="rounded=1;whiteSpace=wrap;html=1;arcSize=50;" parent="1" vertex="1">
          <mxGeometry x="130" y="520" width="120" height="60" as="geometry" />
        </mxCell>
        <mxCell id="JTB2cIfCWi0zclC-SJn_-3" value="&lt;b&gt;Александр&lt;/b&gt;&lt;div&gt;1978 г. р.&lt;b&gt;&lt;br&gt;&lt;/b&gt;&lt;/div&gt;" style="rounded=1;whiteSpace=wrap;html=1;arcSize=50;" parent="1" vertex="1">
          <mxGeometry x="610" y="520" width="120" height="60" as="geometry" />
        </mxCell>
        <mxCell id="JTB2cIfCWi0zclC-SJn_-4" value="&lt;b&gt;Олег&lt;/b&gt;&lt;div&gt;1968 г. р.&lt;br&gt;&lt;/div&gt;" style="rounded=1;whiteSpace=wrap;html=1;arcSize=50;" parent="1" vertex="1">
          <mxGeometry x="-20" y="520" width="120" height="60" as="geometry" />
        </mxCell>
        <mxCell id="JTB2cIfCWi0zclC-SJn_-5" value="&lt;b&gt;Артем&lt;/b&gt;&lt;br&gt;&lt;div&gt;&lt;span style=&quot;background-color: initial;&quot;&gt;1982 г. р.&lt;/span&gt;&lt;span style=&quot;color: rgba(0, 0, 0, 0); font-family: monospace; font-size: 0px; text-align: start; text-wrap: nowrap;&quot;&gt;%3CmxGraphModel%3E%3Croot%3E%3CmxCell%20id%3D%220%22%2F%3E%3CmxCell%20id%3D%221%22%20parent%3D%220%22%2F%3E%3CmxCell%20id%3D%222%22%20value%3D%22%D0%9B%D0%B8%D0%B4%D0%B8%D1%8F%22%20style%3D%22rounded%3D1%3BwhiteSpace%3Dwrap%3Bhtml%3D1%3BarcSize%3D50%3B%22%20vertex%3D%221%22%20parent%3D%221%22%3E%3CmxGeometry%20x%3D%22480%22%20y%3D%22340%22%20width%3D%22120%22%20height%3D%2260%22%20as%3D%22geometry%22%2F%3E%3C%2FmxCell%3E%3C%2Froot%3E%3C%2FmxGraphModel%3E&lt;/span&gt;&lt;br&gt;&lt;/div&gt;" style="rounded=1;whiteSpace=wrap;html=1;arcSize=50;" parent="1" vertex="1">
          <mxGeometry x="760" y="520" width="120" height="60" as="geometry" />
        </mxCell>
        <mxCell id="JTB2cIfCWi0zclC-SJn_-6" value="&lt;b&gt;Лидия&lt;/b&gt;&lt;div&gt;1958 г. р.&lt;b&gt;&lt;br&gt;&lt;/b&gt;&lt;/div&gt;" style="rounded=1;whiteSpace=wrap;html=1;arcSize=50;" parent="1" vertex="1">
          <mxGeometry x="540" y="410" width="120" height="60" as="geometry" />
        </mxCell>
        <mxCell id="JTB2cIfCWi0zclC-SJn_-7" value="&lt;b&gt;Сергей&lt;/b&gt;&lt;div&gt;1958 г. р.&lt;b&gt;&lt;br&gt;&lt;/b&gt;&lt;/div&gt;" style="rounded=1;whiteSpace=wrap;html=1;arcSize=50;" parent="1" vertex="1">
          <mxGeometry x="1000" y="410" width="120" height="60" as="geometry" />
        </mxCell>
        <mxCell id="JTB2cIfCWi0zclC-SJn_-8" value="&lt;b&gt;Наталия&lt;/b&gt;&lt;div&gt;1968 г. р.&lt;/div&gt;" style="rounded=1;whiteSpace=wrap;html=1;arcSize=50;" parent="1" vertex="1">
          <mxGeometry x="-260" y="520" width="120" height="60" as="geometry" />
        </mxCell>
        <mxCell id="JTB2cIfCWi0zclC-SJn_-9" value="&lt;b&gt;Юрий&lt;/b&gt;&lt;div&gt;1993 г. р.&lt;/div&gt;" style="rounded=1;whiteSpace=wrap;html=1;arcSize=50;" parent="1" vertex="1">
          <mxGeometry x="-140" y="630" width="120" height="60" as="geometry" />
        </mxCell>
        <mxCell id="JTB2cIfCWi0zclC-SJn_-10" value="&lt;b&gt;Мария&lt;/b&gt;&lt;div&gt;1982 г. р.&lt;br&gt;&lt;/div&gt;" style="rounded=1;whiteSpace=wrap;html=1;arcSize=50;" parent="1" vertex="1">
          <mxGeometry x="1170" y="520" width="120" height="60" as="geometry" />
        </mxCell>
        <mxCell id="JTB2cIfCWi0zclC-SJn_-11" value="&lt;b&gt;Леонид&lt;/b&gt;&lt;div&gt;2007&amp;nbsp;&lt;span style=&quot;background-color: initial;&quot;&gt;г. р.&lt;/span&gt;&lt;br&gt;&lt;/div&gt;" style="rounded=1;whiteSpace=wrap;html=1;arcSize=50;" parent="1" vertex="1">
          <mxGeometry x="810" y="630" width="120" height="60" as="geometry" />
        </mxCell>
        <mxCell id="JTB2cIfCWi0zclC-SJn_-12" value="&lt;b&gt;Ирина&lt;/b&gt;&lt;div&gt;1943 г. р&lt;b&gt;.&lt;/b&gt;&lt;/div&gt;&lt;div&gt;2009 г. см.&lt;/div&gt;" style="rounded=1;whiteSpace=wrap;html=1;arcSize=50;" parent="1" vertex="1">
          <mxGeometry x="-120" y="410" width="120" height="60" as="geometry" />
        </mxCell>
        <mxCell id="JTB2cIfCWi0zclC-SJn_-13" value="&lt;b&gt;Юрий&lt;/b&gt;&lt;div&gt;1944 г. р.&lt;/div&gt;&lt;div&gt;1966 г. см.&lt;br&gt;&lt;/div&gt;" style="rounded=1;whiteSpace=wrap;html=1;arcSize=50;" parent="1" vertex="1">
          <mxGeometry x="240" y="410" width="120" height="60" as="geometry" />
        </mxCell>
        <mxCell id="JTB2cIfCWi0zclC-SJn_-14" value="" style="endArrow=none;html=1;rounded=0;entryX=0.5;entryY=1;entryDx=0;entryDy=0;exitX=0.5;exitY=1;exitDx=0;exitDy=0;" parent="1" source="JTB2cIfCWi0zclC-SJn_-2" target="JTB2cIfCWi0zclC-SJn_-3" edge="1">
          <mxGeometry width="50" height="50" relative="1" as="geometry">
            <mxPoint x="400" y="730" as="sourcePoint" />
            <mxPoint x="450" y="680" as="targetPoint" />
            <Array as="points">
              <mxPoint x="190" y="600" />
              <mxPoint x="430" y="600" />
              <mxPoint x="670" y="600" />
            </Array>
          </mxGeometry>
        </mxCell>
        <mxCell id="JTB2cIfCWi0zclC-SJn_-15" value="" style="endArrow=none;html=1;rounded=0;exitX=0.5;exitY=0;exitDx=0;exitDy=0;" parent="1" source="JTB2cIfCWi0zclC-SJn_-1" edge="1">
          <mxGeometry width="50" height="50" relative="1" as="geometry">
            <mxPoint x="400" y="730" as="sourcePoint" />
            <mxPoint x="430" y="600" as="targetPoint" />
          </mxGeometry>
        </mxCell>
        <mxCell id="JTB2cIfCWi0zclC-SJn_-18" value="2003 г." style="text;html=1;align=center;verticalAlign=middle;whiteSpace=wrap;rounded=0;" parent="1" vertex="1">
          <mxGeometry x="400" y="580" width="60" height="30" as="geometry" />
        </mxCell>
        <mxCell id="JTB2cIfCWi0zclC-SJn_-19" value="&lt;b&gt;Евгений&lt;/b&gt;&lt;div&gt;1956 г. р.&lt;b&gt;&lt;br&gt;&lt;/b&gt;&lt;/div&gt;" style="rounded=1;whiteSpace=wrap;html=1;arcSize=50;" parent="1" vertex="1">
          <mxGeometry x="830" y="410" width="120" height="60" as="geometry" />
        </mxCell>
        <mxCell id="JTB2cIfCWi0zclC-SJn_-20" value="" style="endArrow=none;html=1;rounded=0;exitX=0.5;exitY=1;exitDx=0;exitDy=0;entryX=0.5;entryY=1;entryDx=0;entryDy=0;" parent="1" source="JTB2cIfCWi0zclC-SJn_-6" target="JTB2cIfCWi0zclC-SJn_-19" edge="1">
          <mxGeometry width="50" height="50" relative="1" as="geometry">
            <mxPoint x="580" y="490" as="sourcePoint" />
            <mxPoint x="900" y="490" as="targetPoint" />
            <Array as="points">
              <mxPoint x="600" y="490" />
              <mxPoint x="890" y="490" />
            </Array>
          </mxGeometry>
        </mxCell>
        <mxCell id="JTB2cIfCWi0zclC-SJn_-22" value="" style="endArrow=none;html=1;rounded=0;exitX=0.5;exitY=0;exitDx=0;exitDy=0;" parent="1" source="JTB2cIfCWi0zclC-SJn_-3" edge="1">
          <mxGeometry width="50" height="50" relative="1" as="geometry">
            <mxPoint x="670.0999999999998" y="520" as="sourcePoint" />
            <mxPoint x="669.9" y="490.48" as="targetPoint" />
          </mxGeometry>
        </mxCell>
        <mxCell id="JTB2cIfCWi0zclC-SJn_-23" value="" style="endArrow=none;html=1;rounded=0;exitX=0.5;exitY=0;exitDx=0;exitDy=0;" parent="1" source="JTB2cIfCWi0zclC-SJn_-5" edge="1">
          <mxGeometry width="50" height="50" relative="1" as="geometry">
            <mxPoint x="760" y="530" as="sourcePoint" />
            <mxPoint x="820" y="490" as="targetPoint" />
          </mxGeometry>
        </mxCell>
        <mxCell id="JTB2cIfCWi0zclC-SJn_-24" value="1976 г." style="text;html=1;align=center;verticalAlign=middle;whiteSpace=wrap;rounded=0;" parent="1" vertex="1">
          <mxGeometry x="720" y="470" width="60" height="30" as="geometry" />
        </mxCell>
        <mxCell id="JTB2cIfCWi0zclC-SJn_-26" value="" style="endArrow=none;dashed=1;html=1;dashPattern=1 3;strokeWidth=2;rounded=0;entryX=0.5;entryY=1;entryDx=0;entryDy=0;" parent="1" target="JTB2cIfCWi0zclC-SJn_-7" edge="1">
          <mxGeometry width="50" height="50" relative="1" as="geometry">
            <mxPoint x="890" y="490" as="sourcePoint" />
            <mxPoint x="1070" y="490" as="targetPoint" />
            <Array as="points">
              <mxPoint x="1060" y="490" />
            </Array>
          </mxGeometry>
        </mxCell>
        <mxCell id="JTB2cIfCWi0zclC-SJn_-27" value="1980 г." style="text;html=1;align=center;verticalAlign=middle;whiteSpace=wrap;rounded=0;" parent="1" vertex="1">
          <mxGeometry x="950" y="470" width="60" height="30" as="geometry" />
        </mxCell>
        <mxCell id="JTB2cIfCWi0zclC-SJn_-29" value="&lt;b&gt;Даниил&lt;/b&gt;&lt;div&gt;2017&amp;nbsp;&lt;span style=&quot;background-color: initial;&quot;&gt;г. р.&lt;/span&gt;&lt;br&gt;&lt;/div&gt;" style="rounded=1;whiteSpace=wrap;html=1;arcSize=50;" parent="1" vertex="1">
          <mxGeometry x="960" y="630" width="120" height="60" as="geometry" />
        </mxCell>
        <mxCell id="JTB2cIfCWi0zclC-SJn_-30" value="" style="endArrow=none;html=1;rounded=0;entryX=0.5;entryY=1;entryDx=0;entryDy=0;exitX=0.538;exitY=1.005;exitDx=0;exitDy=0;exitPerimeter=0;" parent="1" source="JTB2cIfCWi0zclC-SJn_-10" target="JTB2cIfCWi0zclC-SJn_-5" edge="1">
          <mxGeometry width="50" height="50" relative="1" as="geometry">
            <mxPoint x="840" y="620" as="sourcePoint" />
            <mxPoint x="890" y="570" as="targetPoint" />
            <Array as="points">
              <mxPoint x="1235" y="600" />
              <mxPoint x="820" y="600" />
            </Array>
          </mxGeometry>
        </mxCell>
        <mxCell id="JTB2cIfCWi0zclC-SJn_-31" value="" style="endArrow=none;html=1;rounded=0;exitX=0.5;exitY=0;exitDx=0;exitDy=0;" parent="1" source="JTB2cIfCWi0zclC-SJn_-11" edge="1">
          <mxGeometry width="50" height="50" relative="1" as="geometry">
            <mxPoint x="840" y="620" as="sourcePoint" />
            <mxPoint x="870" y="600" as="targetPoint" />
          </mxGeometry>
        </mxCell>
        <mxCell id="JTB2cIfCWi0zclC-SJn_-32" value="" style="endArrow=none;html=1;rounded=0;exitX=0.5;exitY=0;exitDx=0;exitDy=0;" parent="1" source="JTB2cIfCWi0zclC-SJn_-29" edge="1">
          <mxGeometry width="50" height="50" relative="1" as="geometry">
            <mxPoint x="1050" y="660" as="sourcePoint" />
            <mxPoint x="1020" y="600" as="targetPoint" />
          </mxGeometry>
        </mxCell>
        <mxCell id="JTB2cIfCWi0zclC-SJn_-33" value="2006 г." style="text;html=1;align=center;verticalAlign=middle;whiteSpace=wrap;rounded=0;" parent="1" vertex="1">
          <mxGeometry x="990" y="580" width="60" height="30" as="geometry" />
        </mxCell>
        <mxCell id="lrWj_tW0Z6uEH1eJErhZ-2" value="" style="endArrow=none;html=1;rounded=0;entryX=0.5;entryY=1;entryDx=0;entryDy=0;exitX=0.5;exitY=1;exitDx=0;exitDy=0;" parent="1" source="JTB2cIfCWi0zclC-SJn_-13" target="JTB2cIfCWi0zclC-SJn_-12" edge="1">
          <mxGeometry width="50" height="50" relative="1" as="geometry">
            <mxPoint x="400" y="670" as="sourcePoint" />
            <mxPoint x="450" y="620" as="targetPoint" />
            <Array as="points">
              <mxPoint x="300" y="490" />
              <mxPoint x="-60" y="490" />
            </Array>
          </mxGeometry>
        </mxCell>
        <mxCell id="lrWj_tW0Z6uEH1eJErhZ-3" value="" style="endArrow=none;html=1;rounded=0;exitX=0.5;exitY=0;exitDx=0;exitDy=0;" parent="1" source="JTB2cIfCWi0zclC-SJn_-4" edge="1">
          <mxGeometry width="50" height="50" relative="1" as="geometry">
            <mxPoint x="400" y="600" as="sourcePoint" />
            <mxPoint x="40" y="490" as="targetPoint" />
          </mxGeometry>
        </mxCell>
        <mxCell id="lrWj_tW0Z6uEH1eJErhZ-4" value="" style="endArrow=none;html=1;rounded=0;exitX=0.5;exitY=0;exitDx=0;exitDy=0;" parent="1" source="JTB2cIfCWi0zclC-SJn_-2" edge="1">
          <mxGeometry width="50" height="50" relative="1" as="geometry">
            <mxPoint x="240" y="570" as="sourcePoint" />
            <mxPoint x="190" y="490" as="targetPoint" />
          </mxGeometry>
        </mxCell>
        <mxCell id="lrWj_tW0Z6uEH1eJErhZ-5" value="" style="endArrow=none;html=1;rounded=0;exitX=0.5;exitY=1;exitDx=0;exitDy=0;entryX=0.5;entryY=1;entryDx=0;entryDy=0;" parent="1" source="JTB2cIfCWi0zclC-SJn_-8" target="JTB2cIfCWi0zclC-SJn_-4" edge="1">
          <mxGeometry width="50" height="50" relative="1" as="geometry">
            <mxPoint x="440" y="660" as="sourcePoint" />
            <mxPoint x="490" y="610" as="targetPoint" />
            <Array as="points">
              <mxPoint x="-200" y="600" />
              <mxPoint x="40" y="600" />
            </Array>
          </mxGeometry>
        </mxCell>
        <mxCell id="lrWj_tW0Z6uEH1eJErhZ-6" value="" style="endArrow=none;html=1;rounded=0;exitX=0.5;exitY=0;exitDx=0;exitDy=0;" parent="1" source="JTB2cIfCWi0zclC-SJn_-9" edge="1">
          <mxGeometry width="50" height="50" relative="1" as="geometry">
            <mxPoint x="440" y="660" as="sourcePoint" />
            <mxPoint x="-80" y="600" as="targetPoint" />
          </mxGeometry>
        </mxCell>
        <mxCell id="lrWj_tW0Z6uEH1eJErhZ-8" value="&lt;b&gt;Александра&lt;/b&gt;&lt;br&gt;&lt;div&gt;1993 г. р.&lt;/div&gt;" style="rounded=1;whiteSpace=wrap;html=1;arcSize=50;" parent="1" vertex="1">
          <mxGeometry x="-500" y="620" width="120" height="60" as="geometry" />
        </mxCell>
        <mxCell id="lrWj_tW0Z6uEH1eJErhZ-9" value="" style="endArrow=none;html=1;rounded=0;entryX=0.5;entryY=1;entryDx=0;entryDy=0;exitX=0.5;exitY=1;exitDx=0;exitDy=0;" parent="1" source="lrWj_tW0Z6uEH1eJErhZ-8" target="JTB2cIfCWi0zclC-SJn_-9" edge="1">
          <mxGeometry width="50" height="50" relative="1" as="geometry">
            <mxPoint x="-80" y="710" as="sourcePoint" />
            <mxPoint x="140" y="640" as="targetPoint" />
            <Array as="points">
              <mxPoint x="-440" y="710" />
              <mxPoint x="-80" y="710" />
            </Array>
          </mxGeometry>
        </mxCell>
        <mxCell id="lrWj_tW0Z6uEH1eJErhZ-11" value="" style="endArrow=none;html=1;rounded=0;exitX=0.5;exitY=0;exitDx=0;exitDy=0;" parent="1" edge="1">
          <mxGeometry width="50" height="50" relative="1" as="geometry">
            <mxPoint x="-250.08" y="740" as="sourcePoint" />
            <mxPoint x="-250.08" y="710" as="targetPoint" />
          </mxGeometry>
        </mxCell>
        <mxCell id="lrWj_tW0Z6uEH1eJErhZ-12" value="&lt;b&gt;Варвара&lt;/b&gt;&lt;br&gt;&lt;div&gt;2024 г. р.&lt;/div&gt;" style="rounded=1;whiteSpace=wrap;html=1;arcSize=50;" parent="1" vertex="1">
          <mxGeometry x="-310" y="730" width="120" height="60" as="geometry" />
        </mxCell>
        <mxCell id="lrWj_tW0Z6uEH1eJErhZ-13" value="2023 г." style="text;html=1;align=center;verticalAlign=middle;whiteSpace=wrap;rounded=0;" parent="1" vertex="1">
          <mxGeometry x="-280" y="690" width="60" height="30" as="geometry" />
        </mxCell>
        <mxCell id="lrWj_tW0Z6uEH1eJErhZ-14" value="&lt;b&gt;Людмила&lt;/b&gt;&lt;div&gt;1930 г. р.&lt;/div&gt;&lt;div&gt;2019 г. см.&lt;/div&gt;" style="rounded=1;whiteSpace=wrap;html=1;arcSize=50;" parent="1" vertex="1">
          <mxGeometry x="-260" y="410" width="120" height="60" as="geometry" />
        </mxCell>
        <mxCell id="lrWj_tW0Z6uEH1eJErhZ-16" value="&lt;b&gt;Антонина&lt;/b&gt;&lt;div&gt;1908 г. р.&lt;/div&gt;&lt;div&gt;1944 г. см.&lt;/div&gt;" style="rounded=1;whiteSpace=wrap;html=1;arcSize=50;" parent="1" vertex="1">
          <mxGeometry x="-340" y="290" width="120" height="60" as="geometry" />
        </mxCell>
        <mxCell id="lrWj_tW0Z6uEH1eJErhZ-17" value="&lt;b&gt;Анатолий&lt;/b&gt;&lt;div&gt;&lt;div&gt;1908 г. р.&lt;/div&gt;&lt;div&gt;1944 г. см.&lt;/div&gt;&lt;/div&gt;" style="rounded=1;whiteSpace=wrap;html=1;arcSize=50;" parent="1" vertex="1">
          <mxGeometry x="-30" y="290" width="120" height="60" as="geometry" />
        </mxCell>
        <mxCell id="lrWj_tW0Z6uEH1eJErhZ-18" value="" style="endArrow=none;html=1;rounded=0;entryX=0.5;entryY=1;entryDx=0;entryDy=0;exitX=0.5;exitY=1;exitDx=0;exitDy=0;" parent="1" source="lrWj_tW0Z6uEH1eJErhZ-17" target="lrWj_tW0Z6uEH1eJErhZ-16" edge="1">
          <mxGeometry width="50" height="50" relative="1" as="geometry">
            <mxPoint x="-280" y="370" as="sourcePoint" />
            <mxPoint x="-50" y="460" as="targetPoint" />
            <Array as="points">
              <mxPoint x="30" y="370" />
              <mxPoint x="-280" y="370" />
            </Array>
          </mxGeometry>
        </mxCell>
        <mxCell id="lrWj_tW0Z6uEH1eJErhZ-19" value="" style="endArrow=none;html=1;rounded=0;" parent="1" source="lrWj_tW0Z6uEH1eJErhZ-14" edge="1">
          <mxGeometry width="50" height="50" relative="1" as="geometry">
            <mxPoint x="40" y="690" as="sourcePoint" />
            <mxPoint x="-200" y="370" as="targetPoint" />
          </mxGeometry>
        </mxCell>
        <mxCell id="lrWj_tW0Z6uEH1eJErhZ-20" value="" style="endArrow=none;html=1;rounded=0;" parent="1" edge="1">
          <mxGeometry width="50" height="50" relative="1" as="geometry">
            <mxPoint x="-60.47999999999999" y="410" as="sourcePoint" />
            <mxPoint x="-60.47999999999999" y="370" as="targetPoint" />
          </mxGeometry>
        </mxCell>
        <mxCell id="lrWj_tW0Z6uEH1eJErhZ-22" value="&lt;b&gt;Феликс&lt;/b&gt;&lt;div&gt;1963 г. р.&lt;/div&gt;" style="rounded=1;whiteSpace=wrap;html=1;arcSize=50;" parent="1" vertex="1">
          <mxGeometry x="-400" y="520" width="120" height="60" as="geometry" />
        </mxCell>
        <mxCell id="lrWj_tW0Z6uEH1eJErhZ-23" value="&lt;b&gt;Евгения&lt;/b&gt;&lt;div&gt;1963 г. р.&lt;/div&gt;" style="rounded=1;whiteSpace=wrap;html=1;arcSize=50;" parent="1" vertex="1">
          <mxGeometry x="-600" y="520" width="120" height="60" as="geometry" />
        </mxCell>
        <mxCell id="lrWj_tW0Z6uEH1eJErhZ-24" value="" style="endArrow=none;html=1;rounded=0;entryX=0.5;entryY=1;entryDx=0;entryDy=0;exitX=0.5;exitY=1;exitDx=0;exitDy=0;" parent="1" source="lrWj_tW0Z6uEH1eJErhZ-22" target="lrWj_tW0Z6uEH1eJErhZ-23" edge="1">
          <mxGeometry width="50" height="50" relative="1" as="geometry">
            <mxPoint x="-340" y="661.62" as="sourcePoint" />
            <mxPoint x="-542.3999999999999" y="585" as="targetPoint" />
            <Array as="points">
              <mxPoint x="-340" y="600" />
              <mxPoint x="-540" y="600" />
            </Array>
          </mxGeometry>
        </mxCell>
        <mxCell id="lrWj_tW0Z6uEH1eJErhZ-25" value="" style="endArrow=none;html=1;rounded=0;exitX=0.5;exitY=0;exitDx=0;exitDy=0;" parent="1" source="lrWj_tW0Z6uEH1eJErhZ-8" edge="1">
          <mxGeometry width="50" height="50" relative="1" as="geometry">
            <mxPoint x="-410" y="660" as="sourcePoint" />
            <mxPoint x="-440" y="600" as="targetPoint" />
          </mxGeometry>
        </mxCell>
        <mxCell id="hgHZ5QQ5ot_UBZo6hz72-2" value="&lt;b&gt;Ольга&lt;/b&gt;&lt;div&gt;&lt;div&gt;1930 г. р.&lt;/div&gt;&lt;div&gt;1981 г. см.&lt;/div&gt;&lt;/div&gt;" style="rounded=1;whiteSpace=wrap;html=1;arcSize=50;" vertex="1" parent="1">
          <mxGeometry x="460" y="290" width="120" height="60" as="geometry" />
        </mxCell>
        <mxCell id="hgHZ5QQ5ot_UBZo6hz72-3" value="&lt;b&gt;Василий&lt;/b&gt;&lt;div&gt;&lt;div&gt;1930 г. р.&lt;/div&gt;&lt;div&gt;1974 г. см.&lt;/div&gt;&lt;/div&gt;" style="rounded=1;whiteSpace=wrap;html=1;arcSize=50;" vertex="1" parent="1">
          <mxGeometry x="620" y="290" width="120" height="60" as="geometry" />
        </mxCell>
        <mxCell id="hgHZ5QQ5ot_UBZo6hz72-4" value="&lt;b&gt;София&lt;/b&gt;&lt;div&gt;&lt;div&gt;1932 г. р.&lt;/div&gt;&lt;div&gt;1998 г. см.&lt;/div&gt;&lt;/div&gt;" style="rounded=1;whiteSpace=wrap;html=1;arcSize=50;" vertex="1" parent="1">
          <mxGeometry x="890" y="290" width="120" height="60" as="geometry" />
        </mxCell>
        <mxCell id="hgHZ5QQ5ot_UBZo6hz72-5" value="&lt;b&gt;Афанас&lt;/b&gt;&lt;div&gt;&lt;div&gt;1932 г. р.&lt;/div&gt;&lt;div&gt;1998 г. см.&lt;/div&gt;&lt;/div&gt;" style="rounded=1;whiteSpace=wrap;html=1;arcSize=50;" vertex="1" parent="1">
          <mxGeometry x="1110" y="290" width="120" height="60" as="geometry" />
        </mxCell>
        <mxCell id="hgHZ5QQ5ot_UBZo6hz72-6" value="" style="endArrow=none;html=1;rounded=0;entryX=0.5;entryY=1;entryDx=0;entryDy=0;exitX=0.543;exitY=1.005;exitDx=0;exitDy=0;exitPerimeter=0;" edge="1" parent="1" source="hgHZ5QQ5ot_UBZo6hz72-5" target="hgHZ5QQ5ot_UBZo6hz72-4">
          <mxGeometry width="50" height="50" relative="1" as="geometry">
            <mxPoint x="1165" y="350" as="sourcePoint" />
            <mxPoint x="955" y="350" as="targetPoint" />
            <Array as="points">
              <mxPoint x="1175" y="370" />
              <mxPoint x="950" y="370" />
            </Array>
          </mxGeometry>
        </mxCell>
        <mxCell id="hgHZ5QQ5ot_UBZo6hz72-7" value="" style="endArrow=none;html=1;rounded=0;entryX=0.5;entryY=1;entryDx=0;entryDy=0;exitX=0.5;exitY=1;exitDx=0;exitDy=0;" edge="1" parent="1" source="hgHZ5QQ5ot_UBZo6hz72-3" target="hgHZ5QQ5ot_UBZo6hz72-2">
          <mxGeometry width="50" height="50" relative="1" as="geometry">
            <mxPoint x="790" y="360" as="sourcePoint" />
            <mxPoint x="480" y="360" as="targetPoint" />
            <Array as="points">
              <mxPoint x="680" y="370" />
              <mxPoint x="600" y="370" />
              <mxPoint x="520" y="370" />
            </Array>
          </mxGeometry>
        </mxCell>
        <mxCell id="hgHZ5QQ5ot_UBZo6hz72-8" value="" style="endArrow=none;html=1;rounded=0;exitX=0.5;exitY=0;exitDx=0;exitDy=0;" edge="1" parent="1" source="JTB2cIfCWi0zclC-SJn_-7">
          <mxGeometry width="50" height="50" relative="1" as="geometry">
            <mxPoint x="940" y="450" as="sourcePoint" />
            <mxPoint x="1060" y="370" as="targetPoint" />
          </mxGeometry>
        </mxCell>
        <mxCell id="hgHZ5QQ5ot_UBZo6hz72-9" value="" style="endArrow=none;html=1;rounded=0;" edge="1" parent="1" source="JTB2cIfCWi0zclC-SJn_-6">
          <mxGeometry width="50" height="50" relative="1" as="geometry">
            <mxPoint x="700" y="460" as="sourcePoint" />
            <mxPoint x="600" y="370" as="targetPoint" />
            <Array as="points">
              <mxPoint x="600" y="390" />
            </Array>
          </mxGeometry>
        </mxCell>
        <mxCell id="hgHZ5QQ5ot_UBZo6hz72-10" value="1967 г." style="text;html=1;align=center;verticalAlign=middle;whiteSpace=wrap;rounded=0;" vertex="1" parent="1">
          <mxGeometry x="90" y="470" width="60" height="30" as="geometry" />
        </mxCell>
        <mxCell id="hgHZ5QQ5ot_UBZo6hz72-11" value="1991 г." style="text;whiteSpace=wrap;" vertex="1" parent="1">
          <mxGeometry x="-100" y="580" width="60" height="40" as="geometry" />
        </mxCell>
        <mxCell id="hgHZ5QQ5ot_UBZo6hz72-12" value="&lt;b&gt;Роман&lt;/b&gt;&lt;br&gt;&lt;div&gt;2025&amp;nbsp;&lt;span style=&quot;background-color: initial;&quot;&gt;г. р.&lt;/span&gt;&lt;br&gt;&lt;/div&gt;" style="rounded=1;whiteSpace=wrap;html=1;arcSize=50;" vertex="1" parent="1">
          <mxGeometry x="1110" y="630" width="120" height="60" as="geometry" />
        </mxCell>
        <mxCell id="hgHZ5QQ5ot_UBZo6hz72-13" value="" style="endArrow=none;html=1;rounded=0;exitX=0.5;exitY=0;exitDx=0;exitDy=0;" edge="1" parent="1">
          <mxGeometry width="50" height="50" relative="1" as="geometry">
            <mxPoint x="1169.68" y="630" as="sourcePoint" />
            <mxPoint x="1169.68" y="600" as="targetPoint" />
          </mxGeometry>
        </mxCell>
        <mxCell id="hgHZ5QQ5ot_UBZo6hz72-16" value="&lt;b&gt;Станислав&lt;/b&gt;&lt;div&gt;1930 г. р.&lt;b&gt;&lt;br&gt;&lt;/b&gt;&lt;/div&gt;&lt;div&gt;1976 г. см.&lt;/div&gt;" style="rounded=1;whiteSpace=wrap;html=1;arcSize=50;" vertex="1" parent="1">
          <mxGeometry x="-400" y="410" width="120" height="60" as="geometry" />
        </mxCell>
        <mxCell id="hgHZ5QQ5ot_UBZo6hz72-17" value="" style="endArrow=none;html=1;rounded=0;entryX=0.5;entryY=1;entryDx=0;entryDy=0;exitX=0.5;exitY=1;exitDx=0;exitDy=0;" edge="1" parent="1" source="lrWj_tW0Z6uEH1eJErhZ-14" target="hgHZ5QQ5ot_UBZo6hz72-16">
          <mxGeometry width="50" height="50" relative="1" as="geometry">
            <mxPoint x="-40" y="410" as="sourcePoint" />
            <mxPoint x="10" y="360" as="targetPoint" />
            <Array as="points">
              <mxPoint x="-200" y="490" />
              <mxPoint x="-340" y="490" />
            </Array>
          </mxGeometry>
        </mxCell>
        <mxCell id="hgHZ5QQ5ot_UBZo6hz72-18" value="" style="endArrow=none;html=1;rounded=0;exitX=0.5;exitY=0;exitDx=0;exitDy=0;" edge="1" parent="1" source="JTB2cIfCWi0zclC-SJn_-13">
          <mxGeometry width="50" height="50" relative="1" as="geometry">
            <mxPoint x="360" y="430" as="sourcePoint" />
            <mxPoint x="300" y="370" as="targetPoint" />
          </mxGeometry>
        </mxCell>
        <mxCell id="hgHZ5QQ5ot_UBZo6hz72-19" value="&lt;b&gt;Прасковья&lt;/b&gt;&lt;div&gt;&lt;div&gt;1920 г. р.&lt;/div&gt;&lt;div&gt;1960 г. см.&lt;/div&gt;&lt;/div&gt;" style="rounded=1;whiteSpace=wrap;html=1;arcSize=50;" vertex="1" parent="1">
          <mxGeometry x="150" y="290" width="120" height="60" as="geometry" />
        </mxCell>
        <mxCell id="hgHZ5QQ5ot_UBZo6hz72-20" value="&lt;b&gt;Николай&lt;/b&gt;&lt;div&gt;&lt;div&gt;1920 г. р.&lt;/div&gt;&lt;div&gt;1958 г. см.&lt;/div&gt;&lt;/div&gt;" style="rounded=1;whiteSpace=wrap;html=1;arcSize=50;" vertex="1" parent="1">
          <mxGeometry x="320" y="290" width="120" height="60" as="geometry" />
        </mxCell>
        <mxCell id="hgHZ5QQ5ot_UBZo6hz72-21" value="" style="endArrow=none;html=1;rounded=0;entryX=0.5;entryY=1;entryDx=0;entryDy=0;exitX=0.5;exitY=1;exitDx=0;exitDy=0;" edge="1" parent="1" source="hgHZ5QQ5ot_UBZo6hz72-19" target="hgHZ5QQ5ot_UBZo6hz72-20">
          <mxGeometry width="50" height="50" relative="1" as="geometry">
            <mxPoint x="290" y="390" as="sourcePoint" />
            <mxPoint x="340" y="340" as="targetPoint" />
            <Array as="points">
              <mxPoint x="210" y="370" />
              <mxPoint x="380" y="370" />
            </Array>
          </mxGeometry>
        </mxCell>
        <mxCell id="hgHZ5QQ5ot_UBZo6hz72-22" value="1950 г." style="text;html=1;align=center;verticalAlign=middle;whiteSpace=wrap;rounded=0;" vertex="1" parent="1">
          <mxGeometry x="-300" y="470" width="60" height="30" as="geometry" />
        </mxCell>
        <mxCell id="hgHZ5QQ5ot_UBZo6hz72-23" value="1928 г." style="text;html=1;align=center;verticalAlign=middle;whiteSpace=wrap;rounded=0;" vertex="1" parent="1">
          <mxGeometry x="-160" y="350" width="60" height="30" as="geometry" />
        </mxCell>
        <mxCell id="hgHZ5QQ5ot_UBZo6hz72-24" value="1942 г." style="text;html=1;align=center;verticalAlign=middle;whiteSpace=wrap;rounded=0;" vertex="1" parent="1">
          <mxGeometry x="270" y="350" width="60" height="30" as="geometry" />
        </mxCell>
        <mxCell id="hgHZ5QQ5ot_UBZo6hz72-25" value="1954 г." style="text;html=1;align=center;verticalAlign=middle;whiteSpace=wrap;rounded=0;" vertex="1" parent="1">
          <mxGeometry x="570" y="350" width="60" height="30" as="geometry" />
        </mxCell>
        <mxCell id="hgHZ5QQ5ot_UBZo6hz72-26" value="1956 г." style="text;html=1;align=center;verticalAlign=middle;whiteSpace=wrap;rounded=0;" vertex="1" parent="1">
          <mxGeometry x="1030" y="350" width="60" height="30" as="geometry" />
        </mxCell>
        <mxCell id="hgHZ5QQ5ot_UBZo6hz72-27" value="1989 г." style="text;whiteSpace=wrap;" vertex="1" parent="1">
          <mxGeometry x="-460" y="580" width="60" height="40" as="geometry" />
        </mxCell>
      </root>
    </mxGraphModel>
  </diagram>
</mxfile>
